HIERARCHY
ROOT Hips
{
	OFFSET 0.000000 0.000000 0.000000
	CHANNELS 6 Xposition Yposition Zposition Xrotation Yrotation Zrotation
	JOINT LeftUpLeg_virtual
	{
		OFFSET 0.000000 0.000000 0.000000
		CHANNELS 3 Xrotation Yrotation Zrotation
		JOINT LeftUpLeg
		{
			OFFSET 10.205400 -3.823500 0.155100
			CHANNELS 3 Xrotation Yrotation Zrotation
			JOINT LeftLeg
			{
				OFFSET 0.708757 -12.982077 0.567790
				CHANNELS 3 Xrotation Yrotation Zrotation
				JOINT LeftFoot
				{
					OFFSET -0.708756 -10.717838 -2.184338
					CHANNELS 3 Xrotation Yrotation Zrotation
					JOINT LeftToeBase
					{
						OFFSET 0.108149 -7.191104 7.560241
						CHANNELS 3 Xrotation Yrotation Zrotation
						JOINT LeftToe_End
						{
							OFFSET 0.070230 0.081724 4.490308
							CHANNELS 3 Xrotation Yrotation Zrotation
							End Site
							{
								OFFSET 0 0 0
							}
						}
					}
				}
			}
		}
	}
	JOINT RightUpLeg_virtual
	{
		OFFSET 0.000000 0.000000 0.000000
		CHANNELS 3 Xrotation Yrotation Zrotation
		JOINT RightUpLeg
		{
			OFFSET -10.205400 -3.823500 0.005500
			CHANNELS 3 Xrotation Yrotation Zrotation
			JOINT RightLeg
			{
				OFFSET -0.708756 -12.982134 0.610632
				CHANNELS 3 Xrotation Yrotation Zrotation
				JOINT RightFoot
				{
					OFFSET 0.708754 -10.717769 -1.945823
					CHANNELS 3 Xrotation Yrotation Zrotation
					JOINT RightToeBase
					{
						OFFSET -0.108140 -7.191069 7.372968
						CHANNELS 3 Xrotation Yrotation Zrotation
						JOINT RightToe_End
						{
							OFFSET -0.070227 0.081735 4.479403
							CHANNELS 3 Xrotation Yrotation Zrotation
							End Site
							{
								OFFSET 0 0 0
							}
						}
					}
				}
			}
		}
	}
	JOINT Spine_virtual
	{
		OFFSET 0.000000 0.000000 0.000000
		CHANNELS 3 Xrotation Yrotation Zrotation
		JOINT Spine
		{
			OFFSET 0.000000 6.876099 0.125700
			CHANNELS 3 Xrotation Yrotation Zrotation
			JOINT Spine1
			{
				OFFSET 0.000000 5.730043 0.104720
				CHANNELS 3 Xrotation Yrotation Zrotation
				JOINT Spine1_split
				{
					OFFSET 0.000000 5.730043 0.104720
					CHANNELS 3 Xrotation Yrotation Zrotation
					JOINT Spine2
					{
						OFFSET 0.000000 5.730043 0.104720
						CHANNELS 3 Xrotation Yrotation Zrotation
						JOINT Neck_virtual
						{
							OFFSET 0.000000 0.000000 0.000000
							CHANNELS 3 Xrotation Yrotation Zrotation
							JOINT Neck
							{
								OFFSET 0.000000 10.314075 0.188496
								CHANNELS 3 Xrotation Yrotation Zrotation
								JOINT Head
								{
									OFFSET 0.000000 7.643700 -2.377400
									CHANNELS 3 Xrotation Yrotation Zrotation
									JOINT HeadTop_End
									{
										OFFSET 0.000000 43.788605 -13.619600
										CHANNELS 3 Xrotation Yrotation Zrotation
										End Site
										{
											OFFSET 0 0 0
										}
									}
								}
							}
						}
						JOINT LeftShoulder_virtual
						{
							OFFSET 0.000000 0.000000 0.000000
							CHANNELS 3 Xrotation Yrotation Zrotation
							JOINT LeftShoulder
							{
								OFFSET 2.196100 4.412489 0.087492
								CHANNELS 3 Xrotation Yrotation Zrotation
								JOINT LeftShoulder_split
								{
									OFFSET 2.196100 4.412489 0.087492
									CHANNELS 3 Xrotation Yrotation Zrotation
									JOINT LeftArm
									{
										OFFSET 8.771219 -2.981674 -0.026999
										CHANNELS 3 Xrotation Yrotation Zrotation
										JOINT LeftForeArm
										{
											OFFSET 8.512804 0.000000 -0.000000
											CHANNELS 3 Xrotation Yrotation Zrotation
											JOINT LeftHand
											{
												OFFSET 18.484802 0.000000 -0.000000
												CHANNELS 3 Xrotation Yrotation Zrotation
												End Site
												{
													OFFSET 0 0 0
												}
											}
										}
									}
								}
							}
						}
						JOINT RightShoulder_virtual
						{
							OFFSET 0.000000 0.000000 0.000000
							CHANNELS 3 Xrotation Yrotation Zrotation
							JOINT RightShoulder
							{
								OFFSET -2.196100 4.412496 0.070690
								CHANNELS 3 Xrotation Yrotation Zrotation
								JOINT RightShoulder_split
								{
									OFFSET -2.196100 4.412496 0.070690
									CHANNELS 3 Xrotation Yrotation Zrotation
									JOINT RightArm
									{
										OFFSET -8.771282 -2.981682 -0.094208
										CHANNELS 3 Xrotation Yrotation Zrotation
										JOINT RightForeArm
										{
											OFFSET -8.494598 0.000000 0.000000
											CHANNELS 3 Xrotation Yrotation Zrotation
											JOINT RightHand
											{
												OFFSET -18.483803 0.000000 0.000001
												CHANNELS 3 Xrotation Yrotation Zrotation
												End Site
												{
													OFFSET 0 0 0
												}
											}
										}
									}
								}
							}
						}
					}
				}
			}
		}
	}
}
MOTION
Frames: 7
Frame Time: 0.03333333
-0.182223 30.967686 -4.622423 0.000000 0.000000 0.000000 -5.085164 -31.742577 6.274400 -10.319260 0.664761 16.883743 26.846521 -0.599147 5.927542 2.278303 23.900316 -37.973051 -7.269739 -0.530074 1.384058 0.000000 0.000000 0.000000 -5.160113 -28.383140 6.134627 -13.412442 -6.230099 -30.202888 44.734068 20.439654 -3.693046 -38.353916 -25.334189 18.617357 18.749993 15.870569 -28.306833 0.000000 0.000000 0.000000 -12.072405 -22.326604 -0.420018 3.762502 8.031283 -1.901738 8.270912 -9.487936 -2.211430 0.341150 0.745040 -0.192112 0.000000 0.000000 0.000000 11.483922 -5.837734 -1.589336 -13.676440 -1.531938 3.123789 -22.872729 9.826666 -23.927128 0.000000 0.000000 0.000000 8.650012 -7.719597 -2.556032 -0.604866 4.186743 5.202723 0.889991 1.275472 -2.730411 -17.308008 -4.333181 -45.630117 -156.100845 -76.795000 -156.524003 0.000000 0.000000 0.000000 11.382624 -8.142103 -1.481154 7.234226 1.921492 -4.178680 8.576957 -3.817171 6.723977 -31.062730 37.792892 65.918388 -164.523507 55.778569 158.311805 0.000000 0.000000 0.000000 
-0.354553 31.146156 -5.155880 0.000000 0.000000 0.000000 -4.357819 -32.005546 6.774507 -14.554375 -1.453772 16.554579 23.928267 -0.804154 5.881808 9.512851 20.015791 -38.996306 -7.121168 -0.127199 -0.070807 0.000000 0.000000 0.000000 -4.156461 -27.694448 6.533695 -12.724242 -8.736725 -30.157252 46.514258 20.197820 -3.720221 -38.021949 -24.813792 16.089093 17.005800 16.286736 -27.202746 0.000000 0.000000 0.000000 -10.431351 -22.166459 0.406034 4.527241 7.772997 -2.278019 8.495055 -9.429562 -2.147981 0.421251 1.126132 -0.139339 0.000000 0.000000 0.000000 11.809249 -5.803196 -1.952337 -11.600221 -1.154105 2.066765 -21.879362 10.518161 -24.166545 0.000000 0.000000 0.000000 9.239940 -7.843175 -2.597182 -0.158844 2.487483 5.211947 1.871745 -0.153448 -2.394849 -20.102616 -3.548809 -43.966618 -158.102104 -77.013518 -158.685143 0.000000 0.000000 0.000000 11.547553 -8.061815 -1.692936 7.191649 2.954730 -4.054390 8.601052 0.288337 7.325934 -31.751046 35.730454 66.503523 -163.584888 56.646208 157.497305 0.000000 0.000000 0.000000 
-0.416999 31.315353 -5.785433 0.000000 0.000000 0.000000 -2.964069 -30.394472 7.433974 -22.630032 -4.271689 15.741561 22.619278 -2.361774 6.079329 19.953950 13.362473 -40.882572 -8.829497 0.354360 -2.260437 0.000000 0.000000 0.000000 -2.639517 -24.250564 7.123186 -11.412729 -11.656096 -29.281916 48.080287 19.288104 -3.666431 -37.243147 -24.236674 12.540939 10.896535 17.095634 -22.349480 0.000000 0.000000 0.000000 -8.038403 -20.792930 1.974634 7.532480 7.500723 -2.395267 8.522345 -9.061205 -2.555534 0.441490 1.187935 -0.035648 0.000000 0.000000 0.000000 11.826770 -5.447903 -2.766666 -9.403067 -0.774946 0.289051 -21.408929 10.316122 -24.617096 0.000000 0.000000 0.000000 9.520904 -7.640081 -3.197899 0.269522 -0.285684 4.368217 3.301706 -1.046926 -1.835898 -23.452438 -3.893719 -39.808631 -159.100282 -75.797007 -159.888882 0.000000 0.000000 0.000000 11.676733 -7.628549 -2.282880 7.212507 3.398643 -4.546569 7.528159 4.546674 8.100884 -34.655188 34.299089 64.724184 -159.273659 57.898250 153.755591 0.000000 0.000000 0.000000 
-0.408887 31.453707 -6.401642 0.000000 0.000000 0.000000 -1.176846 -26.561088 8.171608 -33.649186 -5.712590 14.318757 22.584553 -3.650800 6.446370 29.088389 7.365638 -41.207904 -7.822511 0.955139 -5.693426 0.000000 0.000000 0.000000 -0.739488 -19.634634 7.744617 -9.924002 -14.482426 -27.738964 48.077603 18.033064 -3.610191 -37.062505 -23.316610 8.203114 2.766575 17.061019 -15.147686 0.000000 0.000000 0.000000 -5.481551 -18.321108 3.895942 12.396790 7.060807 -2.305310 8.385342 -8.469423 -3.206111 0.341742 0.930421 0.112712 0.000000 0.000000 0.000000 11.630234 -4.799274 -3.717814 -7.293191 -0.453193 -1.860131 -21.768081 9.153697 -25.193368 0.000000 0.000000 0.000000 9.541177 -7.143045 -4.040797 0.537196 -3.625745 3.273183 5.238660 -1.484754 -1.302389 -27.322712 -5.674584 -34.588843 -158.486794 -74.077746 -159.587165 0.000000 0.000000 0.000000 11.696487 -6.933420 -3.013161 7.272589 3.207779 -5.699330 5.662272 7.023422 9.287088 -39.085744 33.345745 59.621520 -151.697655 59.383208 147.195207 0.000000 0.000000 0.000000 
-0.376658 31.578611 -7.257883 0.000000 0.000000 0.000000 0.631613 -21.048713 8.999076 -46.770567 -5.188802 12.915925 23.076643 -4.648341 6.649535 36.098390 2.937105 -40.914513 -2.246060 1.151784 -9.344979 0.000000 0.000000 0.000000 1.179433 -15.072458 8.433302 -9.258961 -16.743864 -26.197105 46.743772 16.798420 -3.680786 -37.273141 -21.677665 4.538590 -2.751793 15.860635 -8.304988 0.000000 0.000000 0.000000 -3.251702 -14.464968 5.972512 18.720466 6.242883 -2.158734 8.227451 -7.697633 -3.819400 0.248812 0.528971 0.232935 0.000000 0.000000 0.000000 11.400811 -3.932744 -4.419097 -5.482373 -0.452056 -4.083548 -23.250650 6.561968 -25.805392 0.000000 0.000000 0.000000 9.405462 -6.357458 -4.726666 0.669397 -6.908292 2.785692 7.096476 -1.678066 -0.501909 -32.206651 -8.969196 -29.792694 -155.215940 -73.074889 -156.599572 0.000000 0.000000 0.000000 11.656712 -6.119224 -3.626820 7.270432 2.555965 -7.670506 4.546287 8.506913 8.995014 -44.405532 32.620533 51.078528 -139.982432 61.477433 136.720102 0.000000 0.000000 0.000000 
-0.396978 31.757990 -8.165234 0.000000 0.000000 0.000000 2.120735 -14.422892 9.867884 -59.098724 -2.930574 12.081432 23.133082 -6.023695 6.228858 40.928382 -0.265367 -40.385846 2.948618 0.791920 -10.406651 0.000000 0.000000 0.000000 2.751547 -10.489744 9.191649 -10.233314 -18.326991 -25.250938 45.162748 16.063305 -3.901956 -36.738976 -19.886586 3.395476 -4.431308 14.476094 -3.775388 0.000000 0.000000 0.000000 -1.669837 -9.775911 7.889746 25.753307 4.956329 -2.031548 8.165766 -6.815607 -4.069346 0.226680 0.140525 0.379462 0.000000 0.000000 0.000000 11.166227 -2.918543 -4.584548 -4.166073 -0.896757 -6.213748 -26.008051 2.081019 -26.487463 0.000000 0.000000 0.000000 9.272561 -5.324063 -4.849095 0.792489 -9.431742 3.716679 8.105238 -2.194496 0.601365 -39.165814 -13.675802 -26.864503 -146.068896 -74.202458 -147.493386 0.000000 0.000000 0.000000 11.591273 -5.244081 -3.894714 7.146052 1.556894 -10.334163 4.204331 9.197778 6.834024 -49.887968 32.567363 39.735807 -121.170711 64.068042 119.146462 0.000000 0.000000 0.000000 
-0.554000 31.987858 -9.227144 0.000000 0.000000 0.000000 3.051920 -7.525444 10.811430 -68.663653 0.960246 12.561462 22.508996 -6.987080 5.074647 42.901419 -1.282128 -37.996250 4.100329 0.385903 -7.462606 0.000000 0.000000 0.000000 3.920427 -5.433415 10.121905 -12.588956 -19.132415 -25.112389 44.385598 16.291229 -4.518766 -36.160104 -18.457664 5.660579 -4.123220 13.585646 -2.565440 0.000000 0.000000 0.000000 -0.937170 -4.629291 9.367767 32.980893 3.241988 -1.795547 8.209566 -5.792709 -3.768768 0.272165 0.027075 0.414622 0.000000 0.000000 0.000000 11.023058 -1.772429 -4.116774 -3.200086 -1.740983 -8.143171 -29.872109 -4.083366 -27.564072 0.000000 0.000000 0.000000 9.269081 -4.060068 -4.253940 1.075240 -10.673778 6.163114 8.675374 -2.378181 2.042347 -49.216687 -19.424221 -26.928511 -123.638390 -76.945032 -124.724473 0.000000 0.000000 0.000000 11.461969 -4.305783 -3.701172 6.800054 0.473031 -13.604591 4.751431 9.513225 3.941496 -55.282673 33.427786 27.989560 -93.321271 64.597443 92.124075 0.000000 0.000000 0.000000 
